<svg width="868" height="751" viewBox="0 0 868 751" fill="none" xmlns="http://www.w3.org/2000/svg">
<rect width="868" height="751" fill="white"/>
<path d="M318.948 71.3887C318.146 72.518 301.923 95.25 301.923 95.25C301.923 95.25 296.317 103.428 291.285 110.661C281.376 124.894 280.324 125.887 280.116 129.051C279.668 135.622 283.794 136.732 282.772 142.973C281.595 150.216 275.781 150.303 274.26 157.391C272.593 165.14 278.959 167.798 276.917 175.284C275.281 181.31 270.811 180.863 268.936 187.22C267.237 192.973 270.384 195.144 271.061 204.12C271.738 213.106 268.748 212.96 268.936 222.014C269.165 233.424 273.937 234.358 273.729 244.882C273.541 254.423 269.592 255.494 271.072 262.279C272.061 266.796 274.083 267.556 283.304 278.683C294.036 291.621 294.244 294.143 298.735 295.438C307.226 297.901 311.144 290.229 318.948 292.605C325.898 294.717 326.919 305.163 336.015 311.803C337.234 312.689 338.245 313.273 338.63 313.487C343.423 316.164 348.195 316.826 351.404 316.963C352.852 320.526 355.061 325.384 358.322 330.884C359.937 333.61 365.605 342.859 378.536 355.738C387.33 364.49 394.06 371.198 404.605 377.614C412.513 382.423 423.995 386.025 446.636 393.025C472.726 401.095 479.832 401.981 487.073 401.972C495.221 401.972 504.504 401.855 513.673 396.5C522.207 391.526 526.197 384.613 531.23 375.618C535.866 367.333 536.689 363.118 542.93 344.299C549.161 325.51 548.828 328.265 554.1 311.988C559.58 295.058 562.362 286.384 564.207 276.191C566.218 265.063 566.749 255.718 566.863 249.351C573.959 245.826 576.199 242.088 576.97 239.411C578.575 233.842 574.532 230.484 576.97 225.986C579.367 221.566 584.222 223.065 587.077 218.529C588.39 216.435 587.827 215.384 587.077 203.614C586.504 194.57 586.65 192.194 587.077 189.692C587.848 185.166 589.275 181.787 589.734 180.746C593.068 173.152 595.933 173.561 596.652 169.316C597.496 164.322 593.62 163.222 591.328 152.912C590.922 151.063 590.286 148.142 590.265 144.462C590.213 135.7 593.683 133.51 593.985 127.562C594.36 120.387 589.525 119.403 583.878 106.679C578.46 94.4614 581.628 92.4657 577.491 86.79C571 77.8919 561.81 80.9196 545.035 73.8614C529.187 67.1927 532.709 62.51 507.255 47.0211C489.324 36.1078 479.936 33.7908 476.925 33.0996C467.995 31.0649 468.089 32.7589 451.387 30.6171C431.538 28.0664 428.84 25.3503 417.868 26.1388C408.46 26.8203 409.679 28.8745 395.519 31.6101C373.93 35.7865 369.742 31.2693 358.281 36.5848C354.134 38.5124 349.07 43.0296 339.13 51.9959C330.784 59.5213 324.22 65.9953 319.834 70.4541C319.532 70.7656 319.219 71.0771 318.917 71.3887H318.948Z" stroke="#303030" stroke-width="2" stroke-miterlimit="10"/>
<path d="M352.726 316.223C350.632 311.511 348.85 305.66 351.663 302.798C353.539 300.899 355.956 301.834 357.779 299.819C360.634 296.664 356.706 292.167 357.248 285.401C357.738 279.258 361.228 279.929 364.166 271.479C365.198 268.52 368.22 259.826 365.5 250.353C364.219 245.885 362.479 244.142 363.635 241.65C365.292 238.106 370.168 238.768 374.544 234.689C376.774 232.616 376.524 231.506 379.337 225.246C383.848 215.189 386.464 209.358 392.111 204.364C395.049 201.764 397.039 200.956 398.498 197.899C400.603 193.48 398.456 190.948 400.623 188.456C403.468 185.185 408.209 188.31 413.126 185.224C418.222 182.031 416.398 176.628 421.108 173.288C423.442 171.643 427.526 170.387 435.205 172.295C437.185 170.29 440.31 167.652 444.78 165.831C450.125 163.65 452.834 164.497 454.887 162.103C457.981 158.491 453.949 154.071 456.752 150.167C459.44 146.409 466.108 146.429 469.786 146.438C481.05 146.468 485.301 152.241 490.802 149.671C494.761 147.821 493.865 144.219 498.512 142.213C503.117 140.227 506.149 142.846 509.953 142.213C521.455 140.286 524.102 111.138 527.248 111.391C530.051 111.615 524.904 134.542 536.824 142.71C544.096 147.694 554.766 145.173 557.568 151.413C558.652 153.828 557.277 154.684 558.371 159.114C559.277 162.804 560.798 164.536 564.758 170.3C570.072 178.049 572.728 181.972 572.999 184.465C573.604 189.887 570.384 190.559 571.405 196.4C572.207 200.956 574.448 202.163 574.062 206.34C573.781 209.397 572.51 209.543 571.666 213.301C570.572 218.168 572.405 219.278 571.937 223.737C571.311 229.568 567.988 229.422 566.352 236.169C566.06 237.347 565.883 238.515 566.081 248.105C566.175 252.67 566.3 256.477 566.404 259.222" stroke="#303030" stroke-width="2" stroke-miterlimit="10"/>
<path d="M533.634 238.681C534.582 224.974 546.294 213.539 560.152 213.135C552.483 214.031 545.418 218.042 541.113 224.433C539.004 227.322 537.435 230.355 536.75 233.753L536.75 233.754C535.658 239.221 535.98 244.951 536.293 250.53C536.37 251.894 536.446 253.249 536.501 254.589L536.501 254.593C536.835 261.619 537.556 268.561 539.086 275.402C539.612 277.842 540.257 280.294 540.902 282.745C541.167 283.753 541.432 284.762 541.689 285.769C542.573 289.235 543.363 292.705 543.745 296.203L543.746 296.212C544.201 299.769 544.387 303.364 544.273 306.968L544.273 306.98L544.273 306.992C544.355 311.86 542.619 316.997 537.336 318.707L537.317 318.713L537.298 318.721C534.673 319.814 530.624 321.422 527.716 322.576C527.425 322.692 527.145 322.803 526.879 322.908C526.65 322.984 526.246 323.15 525.868 323.305L525.845 323.315C525.43 323.484 525.049 323.64 524.863 323.701L524.863 323.701L524.85 323.706C524.577 323.803 524.273 323.823 523.961 323.832L523.95 323.833L523.94 323.834C521.961 323.979 520.004 323.19 518.257 322.292C514.934 320.549 511.67 318.868 508.226 317.352L508.202 317.341C507.917 317.216 507.621 317.085 507.317 316.956C507.654 317.066 507.984 317.182 508.303 317.297L508.303 317.297L508.311 317.299C511.817 318.497 515.265 319.989 518.633 321.447L518.735 321.491L518.741 321.493C520.307 322.148 522.001 322.842 523.851 322.609L523.853 322.608L524.155 322.57L524.155 322.57L524.165 322.568C524.166 322.568 524.166 322.568 524.166 322.568C524.174 322.567 524.18 322.567 524.184 322.566L524.196 322.565L524.214 322.562C524.218 322.562 524.222 322.561 524.226 322.56C524.232 322.559 524.237 322.558 524.243 322.558L524.257 322.555L524.267 322.553L524.282 322.55L524.296 322.546L524.308 322.543C524.313 322.541 524.319 322.539 524.327 322.537L524.342 322.532C524.344 322.531 524.347 322.53 524.349 322.529C524.353 322.527 524.358 322.526 524.362 322.524C524.37 322.52 524.381 322.516 524.394 322.509C524.399 322.507 524.41 322.5 524.417 322.497C524.422 322.494 524.432 322.488 524.44 322.483C524.651 322.393 524.971 322.241 525.267 322.099L525.356 322.057C525.704 321.891 526.019 321.74 526.167 321.679L526.18 321.674L526.192 321.668C527.303 321.139 529.837 319.986 531.813 319.087C532.628 318.717 533.347 318.389 533.833 318.167L533.834 318.166L536.324 317.017C538.613 316.205 539.983 314.68 540.753 312.846C541.514 311.03 541.684 308.925 541.627 306.923C541.804 298.241 539.622 289.925 537.446 281.632C536.95 279.743 536.455 277.855 535.988 275.964C533.49 263.649 533.042 251.178 533.634 238.681ZM524.225 322.559C524.226 322.559 524.226 322.559 524.225 322.559L524.225 322.559ZM524.257 322.551L524.258 322.551C524.255 322.551 524.254 322.551 524.257 322.551Z" fill="#1D1D1B" stroke="#303030"/>
<path d="M523.437 275.636C523.783 279.457 524.129 283.279 524.448 287.106C523.676 282.612 522.976 278.094 522.289 273.574C522.158 272.718 522.029 271.863 521.899 271.007C520.878 264.271 519.857 257.538 518.635 250.896L518.633 250.885L518.631 250.875C516.966 243.591 515.152 236.008 511.672 229.247C508.429 222.603 504.366 215.914 496.698 213.163C493.185 211.811 489.191 211.429 485.158 211.138C473.147 209.923 461.615 212.132 449.866 214.383C449.588 214.436 449.311 214.489 449.033 214.543L449.033 214.542L449.022 214.545C447.459 214.877 445.844 215.18 444.213 215.487C441.866 215.927 439.486 216.374 437.18 216.924C433.242 217.863 429.402 219.124 426.013 221.239L426.006 221.243L425.999 221.248C422.193 223.797 419.14 227.174 416.789 230.955C418.806 227.012 421.64 223.41 425.345 220.547C430.872 216.638 437.52 215.114 444.189 213.586C445.644 213.253 447.1 212.919 448.546 212.56C460.552 209.756 472.99 207.139 485.358 208.337L485.366 208.338L485.373 208.338C489.483 208.611 493.78 208.95 497.901 210.488L497.901 210.488L497.909 210.491C506.107 213.409 511.065 220.918 514.333 228.111L514.336 228.116C520.606 241.457 521.818 256.19 523.004 270.604C523.083 271.557 523.161 272.509 523.24 273.458L523.241 273.461C523.306 274.186 523.372 274.911 523.437 275.636Z" fill="#1D1D1B" stroke="#303030"/>
<path d="M453.574 226.2C454.094 226.057 454.61 225.914 455.124 225.772C458.891 224.728 462.539 223.717 466.39 223.143L453.574 226.2ZM453.574 226.2C452.723 226.438 451.495 226.762 450.117 227.125C446.822 227.994 442.669 229.089 440.758 229.782L453.574 226.2ZM484.916 229.604C485.565 231.153 486.004 232.755 486.217 234.362C484.614 230.279 481.949 226.62 478.269 223.955L478.269 223.955C474.711 221.382 470.256 222.012 466.313 222.649C462.431 223.228 458.752 224.247 454.99 225.29C454.475 225.432 453.96 225.575 453.442 225.718L453.439 225.718C452.606 225.951 451.395 226.271 450.029 226.631C446.725 227.502 442.52 228.611 440.588 229.312L440.588 229.312L440.579 229.316C437.644 230.443 434.916 232.02 432.344 233.807C435.459 230.394 439.489 227.637 444.002 226.119L444.009 226.116L444.016 226.114C449.75 223.994 455.28 222.085 461.261 220.641C467.043 219.379 471.691 218.919 475.516 220.105C479.3 221.278 482.367 224.093 484.916 229.604Z" fill="#1D1D1B" stroke="#303030"/>
<path d="M434.403 239.167C434.559 236.179 441.217 234.29 453.824 230.717C456.461 229.968 461.212 228.721 467.39 228.731C474.955 228.731 477.132 230.61 477.768 231.214C479.393 232.762 480.727 235.38 480.164 237.921C479.331 241.679 474.746 243.461 469.787 245.379C467.026 246.45 462.806 248.036 457.013 248.114C446.448 248.251 434.195 243.295 434.403 239.167Z" stroke="#303030" stroke-miterlimit="10" stroke-linecap="round"/>
<path d="M557.689 232.515C553.129 231.596 548.47 231.492 543.887 232.27C546.074 231.261 548.663 230.517 551.309 230.153C555.203 229.617 559.141 229.916 562.05 231.337C563.609 232.183 564.256 233.477 564.316 234.85C564.378 236.253 563.824 237.761 562.923 238.942L562.923 238.942L562.917 238.95C561.419 240.997 559.719 242.649 557.468 243.931C555.249 245.189 552.678 245.733 550.422 246.062L550.408 246.064L550.393 246.067C548.625 246.433 546.5 246.586 544.656 246.187C542.821 245.79 541.332 244.867 540.667 243.127L540.665 243.119L540.662 243.112C540.598 242.959 540.541 242.806 540.491 242.652C541.211 243.681 542.199 244.529 543.514 244.85C544.519 245.124 545.579 245.071 546.637 244.884C547.581 244.717 548.561 244.435 549.527 244.157C549.638 244.125 549.75 244.093 549.861 244.061C554.31 242.998 557.791 240.966 560.24 237.409C560.74 236.705 561.067 236.09 561.196 235.542C561.332 234.967 561.252 234.451 560.928 234.017C560.626 233.612 560.154 233.335 559.628 233.117C559.095 232.895 558.441 232.709 557.715 232.521L557.702 232.517L557.689 232.515Z" fill="#1D1D1B" stroke="#303030"/>
<path d="M549.383 223.217C547.769 223.202 546.125 223.272 544.363 223.392C547.515 220.912 551.937 220.214 556.023 221.062C560.117 221.912 563.758 224.29 565.39 227.835C560.414 225.003 555.312 223.227 549.383 223.217Z" fill="#1D1D1B" stroke="#303030"/>
<path d="M485.838 304.61C486.849 300.957 489.814 297.793 494.138 297.197C490.294 300.779 487.877 305.192 488.421 310.45C488.557 311.873 488.891 313.322 489.37 314.866C485.801 312.417 484.819 308.294 485.838 304.61Z" fill="#1D1D1B" stroke="#303030"/>
<path d="M482.183 342.496C485.487 341.515 488.931 340.862 492.386 340.513C492.29 340.595 492.196 340.676 492.103 340.756L492.673 341.572C493.413 341.158 494.151 340.736 494.89 340.313C495.154 340.298 495.418 340.284 495.681 340.272L495.681 340.272L495.694 340.271C500.096 339.962 504.774 340.129 508.992 341.415C512.975 342.884 516.918 343.105 521.036 341.981C521.401 341.898 521.782 341.813 522.174 341.727C523.289 341.479 524.49 341.213 525.646 340.916C527.208 340.515 528.729 340.05 529.887 339.481L529.818 339.339L530.038 339.381L530.038 339.381C530.038 339.381 530.038 339.381 530.038 339.381L530.039 339.381C530.04 339.378 530.041 339.375 530.042 339.373L530.045 339.366C530.05 339.357 530.055 339.349 530.058 339.344C530.062 339.337 530.059 339.343 530.048 339.356C530.125 339.145 530.134 338.915 530.115 338.714C530.094 338.498 530.039 338.276 529.959 338.069C529.88 337.863 529.771 337.658 529.634 337.482C529.501 337.31 529.319 337.137 529.085 337.041L528.973 336.995L528.852 337.006C527.972 337.083 527.141 337.467 526.362 337.842C526.297 337.873 526.233 337.904 526.169 337.935C525.433 338.291 524.718 338.637 523.932 338.829L523.907 338.835L523.883 338.844C522.704 339.266 521.26 339.269 519.909 338.912C518.557 338.554 517.359 337.852 516.641 336.933L516.641 336.933L516.637 336.928C516.502 336.76 516.37 336.593 516.24 336.429C515.428 335.404 514.704 334.49 513.82 333.871C512.745 333.118 511.465 332.811 509.572 333.036L509.563 333.037L509.554 333.038C505.139 333.727 501.083 335.698 497.206 337.85C499.001 336.465 500.998 335.064 503.067 333.914C507.114 331.666 511.281 330.472 514.722 332.038C515.827 332.704 516.625 333.443 517.308 334.139C517.457 334.29 517.603 334.443 517.748 334.595C518.254 335.123 518.742 335.633 519.261 336.006C519.97 336.515 520.77 336.799 521.836 336.679C522.867 336.563 524.117 336.072 525.76 335.124L525.76 335.124L525.766 335.12C527.787 333.913 530.573 333.877 532.011 335.745L532.011 335.745L532.018 335.754C533.261 337.296 533.676 339.437 532.566 341.02C532.011 341.648 531.299 342.076 530.524 342.409C529.951 342.655 529.374 342.839 528.807 343.02C528.591 343.088 528.377 343.157 528.164 343.228C526.252 343.772 524.395 344.157 522.524 344.544C522.25 344.601 521.975 344.658 521.699 344.715C519.454 345.174 517.076 345.614 514.798 345.379L514.798 345.379L514.789 345.378C512.626 345.194 510.604 344.54 508.526 343.856L508.399 343.814C506.38 343.149 504.303 342.466 502.078 342.244C495.471 341.498 488.776 341.553 482.183 342.496ZM530.047 339.357L529.923 339.198H530.073C530.073 339.246 530.066 339.283 530.063 339.297C530.06 339.314 530.056 339.328 530.053 339.336C530.051 339.343 530.049 339.349 530.048 339.354C530.047 339.355 530.047 339.357 530.047 339.357Z" fill="#1D1D1B" stroke="#303030"/>
<path d="M495.51 358.797C492.94 357.636 490.773 355.9 489.119 353.863C491.268 355.501 493.597 356.824 496.098 357.635L496.098 357.635L496.103 357.637C497.899 358.199 499.807 358.669 501.507 358.627C503.214 358.585 504.776 358.021 505.77 356.47C506.119 356.084 506.664 355.681 507.175 355.442L507.188 355.436L507.2 355.43C508.664 354.645 510.823 354.787 512.27 355.347C512.369 355.387 512.468 355.427 512.565 355.467C514.397 356.213 515.972 356.854 517.432 356.862C519.052 356.87 520.461 356.113 521.956 354.247C522.452 353.668 522.898 353.041 523.313 352.391C522.77 354.03 521.948 355.563 520.646 356.786L520.638 356.793L520.631 356.8C519.941 357.505 518.909 357.953 517.774 358.132C516.641 358.312 515.456 358.216 514.505 357.885L514.485 357.878L514.465 357.873C514.055 357.768 513.64 357.636 513.214 357.497C513.148 357.475 513.082 357.453 513.015 357.431C512.656 357.314 512.289 357.193 511.924 357.087C511.062 356.837 510.15 356.65 509.242 356.771L509.224 356.774L509.207 356.777C508.548 356.913 507.859 357.158 507.337 357.756L507.322 357.773L507.309 357.791C506.01 359.58 504.045 360.305 501.887 360.345C499.72 360.384 497.405 359.728 495.525 358.804L495.518 358.801L495.51 358.797Z" fill="#1D1D1B" stroke="#303030"/>
<path d="M515.217 365.709C509.475 365.107 504.113 365.982 498.805 368.062C500.631 365.833 503.501 364.395 506.562 363.946C509.617 363.498 512.788 364.046 515.217 365.709Z" fill="#1D1D1B" stroke="#303030"/>
<mask id="path-14-inside-1_167_43" fill="white">
<path d="M291.431 194.872C292.952 196.312 294.526 197.705 296.245 198.902C297.954 200.08 299.839 201.18 301.871 201.433C302.871 201.56 303.882 201.365 304.664 200.849C305.455 200.353 305.976 199.515 306.445 198.629C306.914 197.743 307.341 196.78 307.925 195.874C308.508 194.959 309.269 194.102 310.207 193.45C312.082 192.116 314.468 191.571 316.739 191.591C319.021 191.61 321.23 192.068 323.345 192.623C325.44 193.178 327.575 193.801 329.618 194.667C331.649 195.514 333.587 196.643 335.39 197.578C335.838 197.812 336.276 197.987 336.682 198.123C337.078 198.22 337.401 198.23 337.703 198.172C338.328 197.967 338.807 197.529 339.099 196.702C339.703 195.057 339.724 192.866 340.662 190.744C341.12 189.683 341.871 188.641 342.861 187.862C343.798 187.064 345.101 186.46 346.466 186.343C347.81 186.236 348.862 186.412 349.737 186.334C350.175 186.295 350.581 186.207 350.988 186.081C351.404 185.954 351.748 185.711 352.123 185.516C353.561 184.669 354.29 182.985 354.801 181.164C355.301 179.314 355.572 177.299 356.072 175.235C356.572 173.181 357.312 171.02 358.771 169.122C359.146 168.654 359.5 168.177 359.979 167.788C360.427 167.379 360.865 166.951 361.396 166.629C362.386 165.909 363.511 165.422 364.647 164.984C366.929 164.195 369.315 163.903 371.659 163.903C374.004 163.903 376.317 164.244 378.557 164.838C380.797 165.432 383.006 166.279 385.017 167.535C387.028 168.781 388.747 170.407 390.185 172.101C391.591 173.765 392.79 175.605 393.946 176.53C394.53 176.978 394.936 177.105 395.551 177.114C395.863 177.105 395.967 177.075 396.176 176.978C396.384 176.871 396.697 176.676 397.051 176.394C397.76 175.839 398.541 175.109 399.312 174.408C400.093 173.707 400.875 172.986 401.688 172.295C403.292 170.903 404.959 169.53 406.585 168.206C408.241 166.882 409.887 165.549 411.659 164.254C412.555 163.611 413.472 162.969 414.493 162.385C415.503 161.801 416.691 161.265 417.9 160.963C419.109 160.652 420.401 160.447 421.672 160.506C422.932 160.545 424.162 160.749 425.277 161.041C427.527 161.616 429.497 162.394 431.497 162.949C439.457 165.315 448.324 164.351 456.389 161.47C456.493 161.431 456.618 161.479 456.659 161.586C456.701 161.674 456.659 161.781 456.566 161.83C452.731 163.777 448.532 165.188 444.156 165.948C441.958 166.308 439.718 166.464 437.467 166.425C435.217 166.366 432.945 166.074 430.757 165.607C428.559 165.15 426.465 164.478 424.495 164.079C422.526 163.67 420.744 163.66 419.025 164.254C417.316 164.77 415.764 165.87 414.149 167.136C412.555 168.391 410.961 169.764 409.377 171.137C407.762 172.5 406.199 173.843 404.657 175.245L402.344 177.338C401.563 178.049 400.812 178.76 399.864 179.519C399.395 179.889 398.833 180.307 398.072 180.648C397.311 181.008 396.311 181.184 395.54 181.154C395.144 181.125 394.738 181.086 394.342 181.038C393.946 180.96 393.55 180.833 393.165 180.707C392.79 180.561 392.446 180.376 392.102 180.191C391.779 179.996 391.498 179.772 391.206 179.568C390.133 178.682 389.435 177.757 388.768 176.9C388.111 176.034 387.528 175.235 386.913 174.466C385.704 172.938 384.381 171.614 382.808 170.562C381.245 169.511 379.422 168.732 377.515 168.168C373.701 167.048 369.44 166.805 365.804 167.924C364.001 168.518 362.459 169.511 361.355 170.893C360.229 172.266 359.531 174.028 359.031 175.907C358.521 177.786 358.208 179.801 357.583 181.875C357.416 182.401 357.27 182.917 357.031 183.442L356.697 184.221L356.249 184.99C355.989 185.516 355.52 185.973 355.145 186.46C354.926 186.684 354.666 186.879 354.415 187.083C354.165 187.278 353.926 187.512 353.634 187.638C353.061 187.94 352.498 188.271 351.873 188.446C351.248 188.631 350.592 188.767 349.946 188.797C348.654 188.865 347.539 188.67 346.716 188.738C345.903 188.797 345.163 189.108 344.475 189.653C343.798 190.169 343.277 190.841 342.892 191.649C342.506 192.447 342.267 193.372 342.058 194.346C341.829 195.319 341.662 196.351 341.225 197.461C341.1 197.734 340.964 198.016 340.808 198.298C340.6 198.571 340.454 198.863 340.172 199.097L339.776 199.457C339.631 199.564 339.464 199.652 339.308 199.739C338.995 199.944 338.63 200.051 338.266 200.158C337.495 200.323 336.713 200.236 336.078 200.041C335.463 199.837 334.911 199.583 334.421 199.311C332.473 198.22 330.764 197.14 328.847 196.273C326.961 195.397 324.96 194.745 322.908 194.132C320.876 193.538 318.813 193.051 316.75 192.963C314.697 192.886 312.634 193.304 310.998 194.395C310.175 194.93 309.498 195.641 308.946 196.449C308.383 197.257 307.935 198.162 307.425 199.087C306.914 199.992 306.289 200.976 305.237 201.599C304.216 202.222 302.944 202.407 301.809 202.222C299.506 201.852 297.631 200.635 295.911 199.379C294.192 198.104 292.65 196.653 291.171 195.154C291.098 195.076 291.098 194.949 291.181 194.881C291.264 194.813 291.389 194.813 291.473 194.881L291.431 194.872Z"/>
</mask>
<path d="M291.431 194.872C292.952 196.312 294.526 197.705 296.245 198.902C297.954 200.08 299.839 201.18 301.871 201.433C302.871 201.56 303.882 201.365 304.664 200.849C305.455 200.353 305.976 199.515 306.445 198.629C306.914 197.743 307.341 196.78 307.925 195.874C308.508 194.959 309.269 194.102 310.207 193.45C312.082 192.116 314.468 191.571 316.739 191.591C319.021 191.61 321.23 192.068 323.345 192.623C325.44 193.178 327.575 193.801 329.618 194.667C331.649 195.514 333.587 196.643 335.39 197.578C335.838 197.812 336.276 197.987 336.682 198.123C337.078 198.22 337.401 198.23 337.703 198.172C338.328 197.967 338.807 197.529 339.099 196.702C339.703 195.057 339.724 192.866 340.662 190.744C341.12 189.683 341.871 188.641 342.861 187.862C343.798 187.064 345.101 186.46 346.466 186.343C347.81 186.236 348.862 186.412 349.737 186.334C350.175 186.295 350.581 186.207 350.988 186.081C351.404 185.954 351.748 185.711 352.123 185.516C353.561 184.669 354.29 182.985 354.801 181.164C355.301 179.314 355.572 177.299 356.072 175.235C356.572 173.181 357.312 171.02 358.771 169.122C359.146 168.654 359.5 168.177 359.979 167.788C360.427 167.379 360.865 166.951 361.396 166.629C362.386 165.909 363.511 165.422 364.647 164.984C366.929 164.195 369.315 163.903 371.659 163.903C374.004 163.903 376.317 164.244 378.557 164.838C380.797 165.432 383.006 166.279 385.017 167.535C387.028 168.781 388.747 170.407 390.185 172.101C391.591 173.765 392.79 175.605 393.946 176.53C394.53 176.978 394.936 177.105 395.551 177.114C395.863 177.105 395.967 177.075 396.176 176.978C396.384 176.871 396.697 176.676 397.051 176.394C397.76 175.839 398.541 175.109 399.312 174.408C400.093 173.707 400.875 172.986 401.688 172.295C403.292 170.903 404.959 169.53 406.585 168.206C408.241 166.882 409.887 165.549 411.659 164.254C412.555 163.611 413.472 162.969 414.493 162.385C415.503 161.801 416.691 161.265 417.9 160.963C419.109 160.652 420.401 160.447 421.672 160.506C422.932 160.545 424.162 160.749 425.277 161.041C427.527 161.616 429.497 162.394 431.497 162.949C439.457 165.315 448.324 164.351 456.389 161.47C456.493 161.431 456.618 161.479 456.659 161.586C456.701 161.674 456.659 161.781 456.566 161.83C452.731 163.777 448.532 165.188 444.156 165.948C441.958 166.308 439.718 166.464 437.467 166.425C435.217 166.366 432.945 166.074 430.757 165.607C428.559 165.15 426.465 164.478 424.495 164.079C422.526 163.67 420.744 163.66 419.025 164.254C417.316 164.77 415.764 165.87 414.149 167.136C412.555 168.391 410.961 169.764 409.377 171.137C407.762 172.5 406.199 173.843 404.657 175.245L402.344 177.338C401.563 178.049 400.812 178.76 399.864 179.519C399.395 179.889 398.833 180.307 398.072 180.648C397.311 181.008 396.311 181.184 395.54 181.154C395.144 181.125 394.738 181.086 394.342 181.038C393.946 180.96 393.55 180.833 393.165 180.707C392.79 180.561 392.446 180.376 392.102 180.191C391.779 179.996 391.498 179.772 391.206 179.568C390.133 178.682 389.435 177.757 388.768 176.9C388.111 176.034 387.528 175.235 386.913 174.466C385.704 172.938 384.381 171.614 382.808 170.562C381.245 169.511 379.422 168.732 377.515 168.168C373.701 167.048 369.44 166.805 365.804 167.924C364.001 168.518 362.459 169.511 361.355 170.893C360.229 172.266 359.531 174.028 359.031 175.907C358.521 177.786 358.208 179.801 357.583 181.875C357.416 182.401 357.27 182.917 357.031 183.442L356.697 184.221L356.249 184.99C355.989 185.516 355.52 185.973 355.145 186.46C354.926 186.684 354.666 186.879 354.415 187.083C354.165 187.278 353.926 187.512 353.634 187.638C353.061 187.94 352.498 188.271 351.873 188.446C351.248 188.631 350.592 188.767 349.946 188.797C348.654 188.865 347.539 188.67 346.716 188.738C345.903 188.797 345.163 189.108 344.475 189.653C343.798 190.169 343.277 190.841 342.892 191.649C342.506 192.447 342.267 193.372 342.058 194.346C341.829 195.319 341.662 196.351 341.225 197.461C341.1 197.734 340.964 198.016 340.808 198.298C340.6 198.571 340.454 198.863 340.172 199.097L339.776 199.457C339.631 199.564 339.464 199.652 339.308 199.739C338.995 199.944 338.63 200.051 338.266 200.158C337.495 200.323 336.713 200.236 336.078 200.041C335.463 199.837 334.911 199.583 334.421 199.311C332.473 198.22 330.764 197.14 328.847 196.273C326.961 195.397 324.96 194.745 322.908 194.132C320.876 193.538 318.813 193.051 316.75 192.963C314.697 192.886 312.634 193.304 310.998 194.395C310.175 194.93 309.498 195.641 308.946 196.449C308.383 197.257 307.935 198.162 307.425 199.087C306.914 199.992 306.289 200.976 305.237 201.599C304.216 202.222 302.944 202.407 301.809 202.222C299.506 201.852 297.631 200.635 295.911 199.379C294.192 198.104 292.65 196.653 291.171 195.154C291.098 195.076 291.098 194.949 291.181 194.881C291.264 194.813 291.389 194.813 291.473 194.881L291.431 194.872Z" fill="#1D1D1B" stroke="#303030" stroke-width="2" mask="url(#path-14-inside-1_167_43)"/>
<path d="M431.315 128.175C433.215 127.036 434.591 125.482 435.599 123.716C434.72 125.596 433.44 127.261 431.602 128.5L431.597 128.504C429.561 129.911 427.198 130.239 424.703 130.193C423.472 130.17 422.226 130.056 420.98 129.943L420.927 129.938C419.671 129.823 418.412 129.71 417.206 129.7C413.049 129.649 409.436 131.972 408.322 135.824L408.321 135.827C407.992 136.992 407.733 138.246 407.475 139.498C407.308 140.306 407.142 141.113 406.956 141.895C406.474 143.93 405.846 145.898 404.724 147.648L404.724 147.648L404.717 147.66C401.319 153.302 394.572 156.649 387.902 157.774L387.893 157.775C383.44 158.609 378.608 158.463 374.323 157.071L374.313 157.067L374.302 157.065C372.334 156.521 370.379 155.542 368.439 154.508C368.137 154.347 367.835 154.185 367.534 154.023C365.916 153.152 364.308 152.286 362.761 151.696L362.75 151.691L362.738 151.688C361.334 151.229 360.205 151.463 359.383 152.209C358.6 152.918 358.173 154.024 357.966 155.162C357.931 155.326 357.897 155.491 357.862 155.655C357.238 158.627 356.608 161.624 354.876 164.167L354.872 164.174C349.943 171.654 339.773 174.208 330.79 173.899L330.786 173.898C326.361 173.784 321.914 172.455 317.913 170.755L317.913 170.755L317.902 170.75C317.56 170.614 317.215 170.473 316.868 170.332C315.253 169.671 313.607 168.997 312.079 168.82C309.719 168.516 308.054 169.585 306.773 171.047C306.137 171.772 305.587 172.602 305.083 173.42C304.881 173.747 304.69 174.068 304.503 174.38C304.214 174.864 303.936 175.329 303.649 175.771L303.644 175.779L303.64 175.786C302.572 177.567 301.575 179.36 300.583 181.151L300.478 181.34C299.52 183.07 298.564 184.796 297.543 186.517L297.543 186.517L297.538 186.525C297.091 187.313 296.609 187.906 296.11 188.341C296.783 187.606 297.348 186.641 297.883 185.573C298.263 184.813 298.649 183.954 299.051 183.057C299.361 182.366 299.681 181.652 300.017 180.945C300.481 180.015 300.916 179.095 301.347 178.185C302.687 175.351 303.98 172.617 305.947 170.017L305.947 170.017L305.953 170.009C308.059 167.101 312.193 166.692 315.59 167.992L315.6 167.996L315.609 167.999C316.463 168.288 317.321 168.6 318.184 168.915C320.321 169.693 322.49 170.483 324.706 170.954C328.77 171.875 333 171.833 337.087 171.203C345.065 170.072 352.971 165.596 354.332 157.522L354.956 154.553L354.959 154.538L354.961 154.523C355.265 152.451 356.353 150.696 357.908 149.641C359.453 148.593 361.487 148.217 363.743 148.946C365.783 149.695 367.478 150.639 369.17 151.58C369.288 151.646 369.406 151.712 369.524 151.777C371.329 152.78 373.154 153.763 375.356 154.422C383.009 156.815 392.202 155.258 398.567 150.77L398.574 150.766L398.58 150.761C401.831 148.315 403.882 145.053 404.837 141.232C405.035 140.531 405.207 139.791 405.379 139.048L405.4 138.958C405.581 138.179 405.764 137.394 405.986 136.619C406.429 135.068 407.013 133.594 407.987 132.359L407.992 132.352L407.997 132.346C409.978 129.652 413.786 128.263 417.202 128.47L417.209 128.47L417.216 128.47C418.381 128.506 419.549 128.66 420.73 128.837C420.978 128.874 421.226 128.912 421.475 128.95C422.406 129.093 423.346 129.238 424.275 129.331C426.637 129.567 429.022 129.483 431.306 128.181L431.306 128.181L431.315 128.175Z" fill="#1D1D1B" stroke="#303030"/>
<path d="M333.291 154.621C332.892 155.184 332.462 155.737 331.947 156.196C332.416 155.705 332.8 155.136 333.137 154.585L333.138 154.585L333.143 154.577C333.662 153.691 334.144 152.766 334.625 151.843C334.707 151.686 334.788 151.53 334.869 151.375C335.435 150.293 336.01 149.219 336.665 148.187C340.658 141.958 346.716 136.183 354.521 134.653L354.521 134.653L354.53 134.651C357.079 134.104 359.655 134.438 362.239 135.064C363.455 135.359 364.661 135.715 365.864 136.07C365.94 136.092 366.015 136.114 366.09 136.137C367.363 136.512 368.634 136.882 369.882 137.162L369.882 137.162L369.893 137.164C375.503 138.283 382.155 138.15 387.895 136.289C393.636 134.427 398.524 130.811 400.461 124.929C400.783 124.018 401.053 123.036 401.318 122.039C401.357 121.89 401.396 121.741 401.436 121.592C401.663 120.733 401.892 119.867 402.155 119.009C402.775 116.993 403.57 115.083 404.906 113.572L404.907 113.57C406.061 112.25 407.583 111.19 409.247 110.446L409.247 110.446L409.255 110.442C411.394 109.438 413.818 109.272 416.282 109.481C418.336 109.655 420.376 110.086 422.272 110.486C422.655 110.566 423.031 110.646 423.401 110.722C428.119 111.744 432.83 111.291 436.6 108.297L436.607 108.292L436.614 108.286C437.977 107.121 438.983 105.768 439.867 104.417C440.199 103.91 440.508 103.412 440.811 102.924C441.331 102.087 441.832 101.279 442.396 100.507C443.272 99.3077 444.252 98.2666 445.559 97.5062C446.86 96.7488 448.52 96.2511 450.782 96.1881C452.797 96.2416 454.649 96.844 456.499 97.5665C456.91 97.7273 457.324 97.8951 457.74 98.0638C459.17 98.6435 460.625 99.2338 462.119 99.5894C466.809 100.885 472.096 101.56 476.925 101.737C481.954 101.947 486.413 99.5471 488.079 94.9172C488.592 93.7219 488.911 92.3778 489.223 91.0626C489.346 90.5484 489.467 90.0387 489.598 89.544C490.073 87.749 490.694 86.0704 491.958 84.7115C493.722 83.2663 495.51 83.0499 497.394 83.4283C499.079 83.767 500.808 84.573 502.647 85.4307C502.922 85.5586 503.198 85.6876 503.478 85.8164C503.823 85.9755 504.171 86.1338 504.523 86.2882C503.771 86.0262 503.024 85.7417 502.286 85.4589L502.146 85.4053C501.002 84.9666 499.879 84.5357 498.819 84.2243C497.717 83.9007 496.646 83.6939 495.651 83.7519C494.641 83.8107 493.71 84.1428 492.919 84.8862C492.139 85.6201 491.532 86.7198 491.093 88.2483L491.089 88.261L491.086 88.2738C490.938 88.9134 490.802 89.5663 490.663 90.2256C490.29 92.0097 489.906 93.8402 489.269 95.5765C488.405 97.9294 487.1 100.028 484.79 101.444L484.783 101.448L484.776 101.452C482.568 102.902 479.978 103.441 477.266 103.549C474.9 103.642 472.481 103.408 470.171 103.184C469.827 103.15 469.486 103.117 469.148 103.086C466.577 102.824 463.929 102.438 461.392 101.766L461.38 101.763L461.368 101.76C459.866 101.441 458.44 100.892 456.992 100.334C456.718 100.229 456.444 100.123 456.169 100.019C454.455 99.369 452.694 98.7702 450.837 98.6835L450.816 98.6825L450.796 98.6832C448.969 98.7451 447.526 99.304 446.328 100.28C445.143 101.246 444.225 102.598 443.398 104.201L443.396 104.206C441.924 107.139 439.331 110.444 436.034 112.093L436.024 112.098L436.013 112.103C432.154 114.264 427.048 114.44 422.827 113.54L422.82 113.539L422.813 113.537C422.119 113.411 421.43 113.273 420.749 113.136C418.913 112.768 417.133 112.411 415.461 112.323C413.195 112.152 411.032 112.608 409.168 113.823C407.005 115.196 405.954 117.191 405.242 119.323C404.931 120.252 404.68 121.222 404.432 122.181C404.397 122.316 404.362 122.452 404.327 122.586C404.042 123.684 403.748 124.764 403.355 125.797L403.35 125.81L403.346 125.823C401.802 130.661 397.695 134.875 392.811 137.104C385.577 140.393 377.096 140.954 369.336 139.147C368.131 138.858 366.955 138.484 365.78 138.094C365.529 138.011 365.279 137.927 365.028 137.843C364.106 137.534 363.18 137.224 362.254 136.952C359.89 136.259 357.456 135.794 354.83 136.189L354.826 136.19C347.332 137.378 341.343 142.817 337.216 148.43L337.213 148.434C336.496 149.432 335.863 150.475 335.239 151.516C335.202 151.577 335.166 151.637 335.13 151.698C334.54 152.681 333.953 153.66 333.291 154.621Z" fill="#1D1D1B" stroke="#303030"/>
<path d="M347.188 125.921C346.174 130.342 343.483 133.997 339.851 136.644C343.151 133.803 345.521 130.101 346.199 125.707C346.241 125.475 346.282 125.24 346.324 125.003C346.666 123.066 347.027 121.022 347.9 119.383C348.383 118.477 349.012 117.717 349.863 117.182C350.708 116.65 351.806 116.318 353.264 116.311C355.392 116.549 357.329 117.27 359.292 118.07C359.548 118.175 359.805 118.281 360.063 118.387C361.771 119.091 363.524 119.814 365.402 120.239C369.346 121.312 373.56 121.742 377.565 122.015L377.565 122.015L377.573 122.015C381.604 122.221 385.727 121.799 388.878 119.823C390.754 118.764 391.851 117.31 392.667 115.697C393.073 114.895 393.412 114.049 393.741 113.198C393.8 113.046 393.858 112.893 393.917 112.74C394.188 112.035 394.459 111.328 394.77 110.618L394.772 110.613C395.572 108.724 396.568 106.871 397.709 105.123C398.799 103.462 400.17 101.727 401.44 100.171L401.445 100.165L401.45 100.158C404.313 96.4071 407.698 93.524 411.573 91.9378C415.44 90.3549 419.826 90.0503 424.729 91.5042L424.737 91.5066L424.745 91.5087C428.717 92.544 432.507 93.2512 436.602 92.4217C438.563 92.0824 440.459 91.4532 442.076 90.5568L442.079 90.5552C442.911 90.0868 443.691 89.4926 444.451 88.9143C444.514 88.8661 444.578 88.818 444.641 88.7701C445.472 88.1387 446.289 87.5333 447.189 87.0688L447.19 87.0685C451.132 85.0272 455.588 84.3441 459.988 84.5725C466.312 85.1904 472.525 84.5013 478.558 82.894C481.693 82.1507 483.67 80.5436 484.672 78.4696C483.86 80.5756 482.013 82.3542 478.818 83.3532L478.818 83.353L478.805 83.3576C472.797 85.4219 466.317 86.4332 459.978 86.1154L459.966 86.1148L459.955 86.1147C456.003 86.095 451.761 86.8533 448.399 88.7803L448.397 88.7817C447.475 89.3165 446.674 89.9781 445.896 90.6201L445.895 90.621L445.894 90.6221C445.108 91.2712 444.342 91.9034 443.453 92.4355C437.726 95.8542 430.411 95.8186 424.056 94.1156C419.683 92.8773 415.926 93.1316 412.611 94.5647C409.31 95.9921 406.493 98.5691 403.954 101.9C402.737 103.367 401.434 104.976 400.369 106.573C399.16 108.305 398.322 110.032 397.562 111.792C397.304 112.388 397.056 112.984 396.807 113.585C396.316 114.768 395.818 115.968 395.217 117.227C393.242 121.162 388.584 123.622 384.028 124.223C377.483 124.99 370.939 123.917 364.669 122.145L364.669 122.144L364.659 122.142C362.913 121.688 361.126 120.887 359.311 120.072C359.19 120.018 359.069 119.964 358.948 119.91C357.031 119.051 355.077 118.2 353.197 117.841L353.158 117.834L353.119 117.833C351.942 117.796 351.009 118.091 350.27 118.638C349.539 119.179 349.038 119.936 348.667 120.758C348.297 121.578 348.044 122.494 347.827 123.377C347.761 123.643 347.7 123.904 347.639 124.16C347.495 124.771 347.358 125.351 347.196 125.889L347.191 125.905L347.188 125.921Z" fill="#1D1D1B" stroke="#303030"/>
<path d="M343.033 118.778C342.472 120.831 341.558 122.893 340.047 124.468C341.143 123.214 341.805 121.723 342.273 120.166C342.653 118.899 342.914 117.549 343.168 116.234C343.274 115.686 343.378 115.145 343.49 114.619C343.876 112.796 344.35 111.109 345.232 109.711C346.097 108.34 347.368 107.227 349.395 106.564C353.198 105.971 356.965 105.858 360.754 105.872C362.104 105.877 363.46 105.899 364.822 105.921C367.282 105.96 369.759 105.999 372.246 105.943L379.813 106.001L379.827 106.001L379.841 106.001C380.48 105.971 381.14 105.968 381.82 105.965C381.896 105.965 381.972 105.965 382.049 105.965C382.805 105.961 383.581 105.954 384.349 105.903C385.878 105.801 387.42 105.524 388.769 104.717C390.768 103.586 392.058 101.962 393.055 100.178C393.72 98.9874 394.272 97.6886 394.812 96.4167C395.07 95.8099 395.325 95.2093 395.589 94.6294L395.594 94.6184L395.598 94.6072C397.368 90.1532 400.415 87.2035 404.183 85.4206C402.593 86.2715 401.133 87.352 399.866 88.7141C397.77 90.8817 396.654 93.6753 395.582 96.3564C395.408 96.7934 395.234 97.2274 395.058 97.6552C393.783 100.75 392.347 103.578 389.316 105.363L389.307 105.368L389.299 105.373C387.968 106.231 386.434 106.581 384.798 106.729C383.981 106.803 383.148 106.825 382.308 106.838C382.124 106.84 381.939 106.843 381.754 106.845C381.104 106.853 380.452 106.862 379.817 106.89L372.233 106.88V106.88L372.224 106.88C369.754 106.919 367.244 106.865 364.714 106.81C363.464 106.783 362.209 106.755 360.95 106.739C357.158 106.69 353.361 106.743 349.694 107.215L349.648 107.221L349.604 107.235C346.94 108.095 345.561 109.996 344.721 112.161C344.304 113.236 344.015 114.385 343.765 115.512C343.683 115.879 343.606 116.241 343.53 116.599C343.37 117.35 343.215 118.078 343.033 118.778Z" fill="#1D1D1B" stroke="#303030"/>
<path d="M309.212 139.332C306.476 140.645 303.431 141.057 300.534 139.918C300.562 139.929 300.591 139.939 300.62 139.949C303.503 140.964 306.485 140.334 309.026 138.931C311.565 137.529 313.716 135.33 314.975 133.104L314.975 133.104L314.979 133.096C316.131 130.979 316.541 128.53 316.948 126.098C317 125.786 317.052 125.474 317.106 125.164L317.106 125.162C318.048 119.566 319.689 114.083 322.448 109.023C325.308 103.872 329.894 99.0415 336.19 97.7953C339.238 97.2501 342.189 97.2272 345.161 97.243C345.389 97.2442 345.617 97.2456 345.846 97.2471C348.582 97.2644 351.346 97.2819 354.17 96.905C359.974 96.3146 365.649 94.6855 371.084 92.8726C376.386 91.1742 380.782 87.5972 382.002 82.3369L382.003 82.333C382.212 81.3942 382.382 80.3641 382.556 79.3065L382.562 79.2731C382.739 78.1985 382.921 77.0918 383.159 75.9903C383.634 73.783 384.32 71.6461 385.567 69.9191L385.567 69.9192L385.573 69.9097C389.885 63.6384 397.6 60.0818 405.364 58.9255C410.002 58.2529 414.946 58.4685 419.349 60.0868C420.789 60.6355 422.153 61.3026 423.529 61.9758C424.096 62.2531 424.665 62.5314 425.242 62.8029C427.201 63.7242 429.225 64.5498 431.448 64.8825C434.206 65.3526 437.136 65.651 439.942 65.4325C442.722 65.2227 445.481 64.3835 447.717 62.9503L447.719 62.9493C448.961 62.1467 449.93 61.1482 450.821 60.1006C451.191 59.6656 451.538 59.2347 451.885 58.805C452.394 58.1726 452.901 57.5429 453.476 56.9066L453.482 56.8997L453.489 56.8924C456.5 53.2985 462.251 51.9941 466.593 54.1754L466.602 54.1803L466.612 54.1847C468.025 54.819 469.374 55.5419 470.736 56.271C471.301 56.5738 471.868 56.8777 472.443 57.1767C474.383 58.1864 476.382 59.1259 478.558 59.7004C484.338 61.461 490.328 60.457 496.05 59.2808L496.06 59.2785C496.281 59.2283 496.501 59.184 496.721 59.1454C496.492 59.1975 496.264 59.2561 496.036 59.3212C490.299 60.8289 484.13 62.0682 478.266 60.5748L478.266 60.5747L478.256 60.5722C475.296 59.8856 472.527 58.6045 469.907 57.2834L469.905 57.2824C469.82 57.2395 469.734 57.1966 469.647 57.1535C468.431 56.5459 467.194 55.9284 465.966 55.4603C464.65 54.9587 463.309 54.6147 461.965 54.6403C458.535 54.6673 456.408 56.5023 454.6 58.6156C454.148 59.1428 453.713 59.6922 453.283 60.2365L453.234 60.2981C452.819 60.8238 452.408 61.344 451.983 61.8475C451.099 62.8941 450.172 63.8443 449.079 64.5652L449.077 64.5666C441.444 69.6529 430.113 68.2914 422.197 64.22C414.587 60.0306 405.472 60.6562 397.719 63.948L397.719 63.948L397.712 63.9513C392.79 66.1373 388.206 69.6953 386.643 74.8307C386.245 76.0602 386.026 77.3764 385.815 78.7296C385.798 78.8343 385.782 78.9393 385.766 79.0446C385.569 80.3115 385.365 81.6182 385.021 82.9772L385.021 82.9771L385.018 82.9862C383.984 87.4065 380.678 91.334 376.467 93.5852C366.893 98.0219 356.008 99.9844 345.352 99.6569C340.22 99.3297 336.245 99.6907 332.884 101.247C329.512 102.808 326.823 105.542 324.199 109.825L324.199 109.825L324.192 109.837C321.422 114.64 319.561 119.977 318.448 125.334C318.359 125.737 318.274 126.142 318.189 126.548C317.696 128.893 317.197 131.27 315.887 133.449C314.34 135.818 311.949 138.019 309.212 139.332Z" fill="#1D1D1B" stroke="#303030"/>
<path d="M495.333 47.8817C500.16 48.8396 504.407 51.0469 508.136 53.946C503.121 50.4524 497.358 48.1037 490.925 48.3318C488.29 48.3692 485.694 48.8659 483.061 49.3699C482.853 49.4097 482.645 49.4496 482.436 49.4893L482.424 49.4915L482.413 49.4943C474.738 51.3372 467.521 49.709 461.278 45.1764C459.747 44.046 458.07 43.0402 456.333 42.6983C454.56 42.3492 452.755 42.6989 451.035 44.2117L451.035 44.2118C450.566 44.6245 450.113 45.1043 449.648 45.6014C449.612 45.6407 449.575 45.6801 449.538 45.7197C449.103 46.1855 448.651 46.6692 448.144 47.1568L448.138 47.1622L448.132 47.1677C446.547 48.7877 444.038 50.0236 441.576 50.1529L441.566 50.1535L441.555 50.1545C439.179 50.3819 436.526 49.2468 434.657 48.1057C430.144 45.2262 424.914 43.4236 419.826 46.0703C418.752 46.6179 417.651 47.2799 416.525 47.9568C416.43 48.0138 416.335 48.0709 416.24 48.128C415.008 48.8681 413.739 49.6204 412.405 50.2822L412.404 50.2824C407.017 52.9625 400.903 54.3345 394.793 54.0275L394.768 54.5269L394.793 54.0275C391.737 53.8742 388.744 53.222 385.971 52.5889L385.97 52.5886C384.569 52.2724 383.202 51.9849 381.925 51.8795C380.646 51.774 379.421 51.847 378.312 52.2793C373.71 54.0684 372.439 57.9951 371.503 61.9455C371.399 62.3822 371.3 62.8185 371.201 63.253C370.847 64.8083 370.498 66.3405 369.979 67.7877C369.32 69.6236 368.402 71.2717 366.898 72.5637C364.61 74.4544 362.566 74.8264 360.458 74.6136C359.385 74.5052 358.291 74.2444 357.12 73.937C356.887 73.8759 356.651 73.813 356.412 73.7492C355.458 73.4945 354.453 73.2262 353.4 73.0111L353.383 73.0077L353.366 73.0055C343.995 71.7504 333.151 75.3435 327.468 82.5902C326.077 84.2454 325.383 86.1753 324.853 88.1186C324.688 88.7239 324.54 89.325 324.393 89.9207C324.061 91.27 323.735 92.5921 323.234 93.876C322.156 96.4889 319.884 98.5646 317.27 99.99L317.27 99.9899L317.262 99.9946C315.443 101.031 313.333 101.525 311.149 101.955C310.848 102.014 310.545 102.072 310.242 102.13C308.37 102.488 306.467 102.853 304.777 103.539L304.763 103.544L304.75 103.55C304.131 103.845 303.595 104.189 303.132 104.574C303.563 104.187 304.069 103.838 304.656 103.534C306.343 102.729 308.169 102.292 310.049 101.842C310.267 101.789 310.486 101.737 310.705 101.684C312.792 101.179 314.922 100.605 316.819 99.4166C320.596 97.2331 322.576 93.6568 323.018 89.601C323.776 83.1214 328.187 78.0015 334.093 74.6879C340 71.3738 347.341 69.9073 353.811 70.7067L353.811 70.7068L353.822 70.7079C354.929 70.8211 355.985 71.1224 357.076 71.4336C357.292 71.4953 357.51 71.5573 357.729 71.6183C359.034 71.9812 360.397 72.3034 361.831 72.1887L361.86 72.1863L361.889 72.1806C364.347 71.6897 365.758 70.2113 366.678 68.2698C367.448 66.6449 367.892 64.6527 368.345 62.6229C368.422 62.2797 368.498 61.9356 368.577 61.5919C369.679 56.7758 371.179 51.8548 377.212 49.6536C380.072 48.6742 382.98 49.0089 385.967 49.6244C386.65 49.7652 387.34 49.9216 388.035 50.0791C390.334 50.6004 392.682 51.1328 394.983 51.1424C400.454 51.4465 406.055 50.2202 410.916 47.8316C412.128 47.2588 413.369 46.5131 414.617 45.7633C415.315 45.3437 416.015 44.9227 416.714 44.5301C418.699 43.4146 420.746 42.4768 422.972 42.2017L422.979 42.2008C426.126 41.7687 429.445 42.4629 432.294 43.8031L432.301 43.8063L432.308 43.8093C433.159 44.1789 433.979 44.6606 434.812 45.1695C434.946 45.2514 435.08 45.3342 435.215 45.4173C435.91 45.8447 436.619 46.2807 437.338 46.6523C439.071 47.5472 440.958 48.1187 443.168 47.4109C444.572 46.9882 445.601 46.1851 446.53 45.2934C446.881 44.956 447.209 44.6173 447.535 44.2799C448.098 43.6971 448.658 43.1182 449.331 42.5566L449.331 42.5568L449.341 42.5479C451.749 40.4264 455.793 39.7855 458.738 41.2571L458.741 41.2588C460.103 41.9258 461.249 42.7177 462.398 43.5323C462.485 43.594 462.572 43.6559 462.66 43.7179C463.714 44.467 464.789 45.2308 466.02 45.8893C471.378 49.0605 476.029 49.0075 480.676 48.4483C481.532 48.3453 482.384 48.2261 483.24 48.1064C487.041 47.5748 490.898 47.0353 495.333 47.8817Z" fill="#1D1D1B" stroke="#303030"/>
<path d="M388.079 194.375C388.362 194.339 388.643 194.292 388.921 194.233C388.661 194.317 388.398 194.39 388.131 194.453L388.126 194.454C385.047 195.207 381.96 194.324 378.744 193.405C378.403 193.308 378.061 193.21 377.717 193.114C374.191 192.126 370.516 191.309 366.911 193.233L366.898 193.24L366.886 193.247C364.994 194.396 363.763 196.068 362.755 197.838C362.302 198.633 361.889 199.459 361.483 200.27C361.438 200.36 361.393 200.45 361.348 200.54C360.896 201.443 360.447 202.323 359.946 203.15L359.941 203.159L359.936 203.167C358.074 206.523 355.858 208.792 353.402 210.26C350.945 211.727 348.22 212.409 345.318 212.546C339.489 212.821 333.007 210.901 326.667 208.815L326.657 208.811L326.646 208.808C323.322 207.875 321.047 207.512 319.375 207.593C317.667 207.675 316.59 208.221 315.686 209.055C315.248 209.459 314.856 209.926 314.461 210.412C314.393 210.495 314.324 210.58 314.256 210.665C313.92 211.08 313.571 211.511 313.166 211.959C312.199 213.028 310.917 214.187 308.846 215.283L308.846 215.283L308.84 215.286C306.804 216.398 303.897 217.301 301.3 217.251C300.005 217.226 298.817 216.965 297.855 216.403C296.903 215.848 296.147 214.986 295.719 213.702C295.496 212.989 295.379 212.318 295.267 211.678C295.26 211.637 295.253 211.595 295.246 211.553C295.131 210.897 295.011 210.239 294.751 209.679C294.263 208.553 293.142 207.787 291.8 207.729C291.133 207.687 290.397 207.783 289.669 207.884C289.619 207.891 289.569 207.898 289.519 207.905C288.82 208.002 288.111 208.101 287.385 208.118L287.377 208.118L287.368 208.119C285.434 208.23 283.76 207.587 282.364 206.517C283.798 207.385 285.465 207.86 287.35 207.615C287.982 207.552 288.605 207.406 289.224 207.26C289.316 207.239 289.408 207.217 289.5 207.196C290.224 207.028 290.971 206.87 291.824 206.819L291.828 206.819C293.506 206.706 295.275 207.73 295.996 209.138L295.996 209.138L295.998 209.142C296.383 209.874 296.595 210.594 296.774 211.283C296.802 211.394 296.831 211.507 296.859 211.619C296.999 212.176 297.14 212.738 297.357 213.217C297.904 214.544 298.983 215.155 300.18 215.338C301.354 215.517 302.668 215.293 303.812 214.958L303.812 214.958L303.818 214.957C306.293 214.203 308.982 212.842 310.702 210.928L310.725 210.902L310.745 210.872C312.386 208.423 313.906 206.766 315.761 205.824C317.605 204.888 319.849 204.624 323.007 205.111L323.008 205.111C325.336 205.465 327.721 206.131 330.152 206.858C330.607 206.994 331.064 207.132 331.523 207.271C333.503 207.87 335.51 208.477 337.507 208.946C342.434 210.103 347.428 210.45 352.15 207.757L352.154 207.755C354.755 206.24 356.384 204.016 357.803 201.668C358.196 201.017 358.572 200.361 358.946 199.707C359.939 197.973 360.924 196.251 362.219 194.673L362.224 194.666L362.23 194.659C365.186 190.779 370.487 189.718 375.281 191.202L375.291 191.205L375.3 191.207C376.325 191.481 377.343 191.846 378.375 192.236C378.658 192.344 378.942 192.453 379.228 192.563C379.977 192.851 380.735 193.143 381.492 193.405C383.59 194.133 385.775 194.672 388.079 194.375Z" fill="#1D1D1B" stroke="#303030"/>
<path d="M364.523 221.478C366.329 220.071 367.636 218.165 368.4 215.765C367.647 220.365 364.425 224.256 359.03 225.518L359.03 225.518L359.017 225.522C355.621 226.417 352.186 226.411 348.676 226.391C345.212 226.362 341.522 225.785 338.347 224.583L338.347 224.583L338.341 224.581C336.299 223.837 334.608 223.302 332.382 223.373L332.381 223.373C330.326 223.443 328.276 223.811 326.368 224.52C325.038 224.952 323.721 225.641 322.417 226.323C322.198 226.438 321.98 226.552 321.762 226.665C320.22 227.463 318.672 228.204 317.02 228.553L317.019 228.554C314.436 229.103 311.774 228.741 309.419 227.511C308.495 227.011 307.8 226.392 307.165 225.827C306.978 225.66 306.796 225.498 306.615 225.345C305.063 223.959 303.259 223.242 301.275 222.737C299.601 222.304 297.956 222.295 296.337 222.401C295.662 222.445 295.008 222.507 294.358 222.569C293.411 222.659 292.471 222.748 291.486 222.78L291.486 222.779L291.479 222.78C287.496 222.963 284.233 220.819 282.029 217.88C283.721 219.595 285.777 220.957 288.257 221.423C290.277 221.858 292.276 221.451 294.4 221.017C294.485 221 294.57 220.983 294.655 220.965L294.655 220.966L294.66 220.964C296.923 220.479 299.421 220.339 301.722 220.735L301.726 220.735C304.103 221.124 306.575 222.03 308.348 223.524C309.844 224.973 311.578 225.815 313.423 226.027C315.272 226.24 317.198 225.819 319.071 224.799L319.08 224.794L319.088 224.789C323.927 221.901 330.241 219.549 336.068 220.96C337.346 221.295 338.523 221.734 339.708 222.175C340.045 222.301 340.383 222.427 340.724 222.551C342.25 223.105 343.818 223.608 345.57 223.795C347.704 224.089 349.969 224.226 352.102 224.333C357.275 224.697 361.536 223.805 364.523 221.478Z" fill="#1D1D1B" stroke="#303030"/>
<path d="M303.98 253.772L303.988 253.77L303.996 253.768C305.253 253.445 306.333 252.986 306.884 252.178C307.477 251.307 307.348 250.222 306.668 248.961C304.688 245.165 305.335 240.052 309.17 237.507C310.717 236.582 312.457 236.515 314.254 236.852C315.814 237.144 317.363 237.727 318.815 238.274C319.051 238.363 319.283 238.451 319.514 238.536L319.515 238.537C319.58 238.561 319.645 238.585 319.711 238.609C321.06 239.105 322.657 239.692 324.197 239.856C325.833 240.03 327.489 239.735 328.743 238.299L328.743 238.299L328.747 238.294C329.263 237.69 329.643 236.947 329.993 236.215C330.061 236.073 330.127 235.932 330.194 235.791C330.477 235.187 330.756 234.595 331.097 234.034L331.099 234.03C331.123 233.99 331.147 233.95 331.171 233.911C331.159 233.935 331.148 233.959 331.137 233.983C330.829 234.584 330.59 235.205 330.362 235.797C330.296 235.969 330.23 236.139 330.164 236.305C329.865 237.059 329.545 237.772 329.056 238.446L329.056 238.446C328.064 239.814 326.084 240.556 324.326 240.402L324.326 240.402L324.313 240.401C322.582 240.294 320.963 239.805 319.328 239.246C319.061 239.154 318.792 239.06 318.522 238.966C317.161 238.492 315.77 238.007 314.333 237.732C312.726 237.422 311.059 237.426 309.741 238.258L309.741 238.258L309.734 238.263C308.445 239.108 307.544 240.485 307.05 241.963C306.558 243.437 306.455 245.063 306.812 246.457C306.968 247.178 307.254 247.827 307.516 248.423C307.585 248.579 307.652 248.731 307.715 248.88C308.022 249.609 308.259 250.323 308.248 251.198C307.91 252.941 306.506 253.924 304.637 254.385C302.754 254.849 300.526 254.74 298.872 254.382C297.156 254.009 295.489 253.183 294.309 251.98L294.309 251.98L294.305 251.975C293.764 251.436 293.311 250.867 292.854 250.291C292.796 250.218 292.737 250.144 292.678 250.071C292.189 249.457 291.679 248.838 291.064 248.318C291.746 248.812 292.31 249.398 292.863 250.007C292.95 250.102 293.036 250.199 293.124 250.295C293.589 250.812 294.067 251.343 294.591 251.791C297.063 254.013 300.86 254.465 303.98 253.772Z" fill="#1D1D1B" stroke="#303030"/>
<path d="M291.807 268.265C290.294 265.712 287.915 263.995 285.197 262.931C286.794 263.345 288.312 263.99 289.658 264.903L289.669 264.91L289.679 264.916C290.805 265.599 291.7 266.588 292.57 267.665C292.759 267.899 292.948 268.139 293.138 268.381C293.806 269.229 294.491 270.098 295.255 270.812L295.265 270.822L295.276 270.831C299.056 273.991 305.065 275.558 309.938 274.02L309.95 274.016L309.963 274.011C311.341 273.495 312.133 272.877 312.564 271.952C312.934 271.158 313.009 270.176 313.096 269.023C313.104 268.923 313.112 268.82 313.12 268.717C313.478 264.674 314.789 260.748 316.357 256.879L316.357 256.879L316.359 256.872C318.139 252.287 322.352 249.036 327.711 250.152L327.723 250.154L327.735 250.156C329.678 250.46 331.685 251.226 333.698 251.994L333.751 252.014C335.753 252.779 337.777 253.548 339.644 253.761L339.652 253.762L339.659 253.762C340.836 253.861 341.851 253.668 342.629 253.09C343.411 252.509 343.874 251.6 344.07 250.436L344.074 250.412L344.076 250.388C344.351 246.385 344.973 243.037 346.606 240.397C348.224 237.781 350.874 235.8 355.343 234.618L355.353 234.615L355.362 234.612C359.741 233.265 363.522 230.867 366.676 227.796C363.887 231.23 360.192 234.092 355.92 235.738C352.157 237.017 348.819 239.325 347.635 243.137C347.218 244.31 347.075 245.521 346.986 246.777C346.959 247.145 346.938 247.516 346.916 247.892C346.863 248.816 346.808 249.771 346.676 250.801C346.437 252.427 345.749 254.029 344.398 255.011L344.389 255.018L344.38 255.025C342.728 256.343 340.898 256.636 338.939 256.401C336.965 256.165 334.904 255.399 332.808 254.62L332.781 254.61C330.707 253.839 328.587 253.053 326.607 252.876C324.592 252.697 322.68 253.145 321.072 254.859L321.06 254.872L321.049 254.885C319.853 256.348 319.023 258.097 318.355 259.886C317.91 261.078 317.528 262.316 317.161 263.506C316.982 264.088 316.806 264.659 316.627 265.207C316.216 266.414 316.071 267.635 315.934 268.795C315.91 268.999 315.886 269.201 315.861 269.4C315.692 270.745 315.468 272.019 314.812 273.258C312.976 275.77 310.024 276.719 306.82 276.679C303.604 276.639 300.212 275.597 297.667 274.232L297.667 274.231L297.655 274.225C295.157 272.97 293.095 270.576 291.813 268.276L291.814 268.276L291.807 268.265Z" fill="#1D1D1B" stroke="#303030"/>
<path d="M330.539 286.578C327.937 288.255 324.911 288.018 321.873 286.9C324.751 287.722 327.723 287.887 330.091 286.239L330.114 286.224L330.134 286.205C331.373 285.123 331.967 283.689 332.399 282.253C332.545 281.769 332.671 281.292 332.795 280.825C333.05 279.863 333.295 278.937 333.681 278.056L333.686 278.044L333.691 278.031C334.777 275.135 337.649 272.576 341.147 272.161C342.461 272.014 343.735 272.131 345.043 272.251C345.315 272.276 345.589 272.301 345.866 272.324C347.441 272.455 349.065 272.509 350.691 271.943C353.585 270.975 355.858 268.606 357.283 265.973C358.738 263.294 359.466 260.166 359.269 257.114C359.737 260.145 359.219 263.373 357.862 266.18L357.862 266.18L357.86 266.185C356.548 268.975 354.259 271.524 351.031 272.734L351.031 272.734L351.024 272.737C349.541 273.318 347.945 273.342 346.28 273.245C345.896 273.222 345.505 273.193 345.11 273.163C343.834 273.066 342.525 272.967 341.298 273.094L341.298 273.094L341.293 273.095C338.184 273.449 335.702 275.637 334.588 278.327C334.253 279.052 333.998 279.818 333.763 280.575C333.704 280.764 333.647 280.952 333.59 281.139C333.415 281.712 333.244 282.274 333.044 282.829C332.521 284.283 331.835 285.593 330.539 286.578Z" fill="#1D1D1B" stroke="#303030"/>
<path d="M418.97 146.563C424.297 147.442 429.921 147.149 435.071 145.704L435.08 145.701L435.08 145.701C440.256 144.351 445.43 142.473 448.95 138.513L448.953 138.509C452.975 134.065 452.114 128.924 450.546 123.829C450.099 122.472 450.102 121.267 450.475 120.229C450.848 119.192 451.573 118.37 452.488 117.745C454.3 116.503 456.918 115.986 459.359 116.051C459.36 116.051 459.36 116.051 459.36 116.051L459.347 116.551C462.278 116.614 464.255 118.036 466.408 119.585C467.562 120.414 468.765 121.28 470.194 121.993L418.97 146.563ZM418.97 146.563C424.271 146.793 429.53 146.053 434.548 144.233L418.97 146.563Z" fill="#1D1D1B" stroke="#303030"/>
<path d="M490.054 134.095C487.326 133.721 484.576 133.593 481.813 133.74L481.806 133.741C476.41 134.111 470.765 134.678 465.747 136.918L465.747 136.918C460.771 139.144 456.321 142.297 452.649 146.189C452.416 146.428 452.184 146.669 451.951 146.91C450.311 148.609 448.651 150.329 446.502 151.552C441.794 154.198 436.603 154.437 431.438 153.405C436.459 154.186 441.529 153.818 446.125 151.134L446.125 151.134L446.133 151.129C448.065 149.951 449.619 148.291 451.158 146.645C451.444 146.339 451.73 146.034 452.018 145.732L452.018 145.732L452.025 145.724C457.485 139.746 465.024 135.054 473.374 133.692C478.959 132.839 484.651 132.39 490.213 133.254L490.221 133.255C491.556 133.442 492.887 133.718 494.229 134.006C494.384 134.039 494.539 134.073 494.695 134.106C495.879 134.361 497.074 134.618 498.268 134.818C500.973 135.271 503.729 135.442 506.527 134.633L506.527 134.633L506.536 134.63C511.816 132.997 515.862 129.582 519.154 125.513C516.007 129.8 512.034 133.357 506.699 135.138C504.018 136.023 501.257 135.955 498.453 135.563C497.094 135.373 495.736 135.108 494.375 134.843L494.243 134.818C492.843 134.545 491.439 134.275 490.054 134.095ZM490.054 134.095C490.055 134.095 490.055 134.095 490.056 134.095L489.988 134.59L490.052 134.094C490.053 134.095 490.053 134.095 490.054 134.095Z" fill="#1D1D1B" stroke="#303030"/>
<path d="M512.431 101.902C513.629 101.862 514.806 101.723 515.959 101.497C514.824 101.824 513.66 102.056 512.485 102.181L512.476 102.182L512.467 102.183C512.103 102.235 511.746 102.269 511.387 102.303C511.343 102.307 511.298 102.311 511.253 102.315C510.856 102.353 510.454 102.394 510.072 102.465C509.302 102.607 508.551 102.881 507.972 103.558C507.329 104.291 507.21 105.128 507.278 106.026L507.28 106.051L507.285 106.077C507.373 106.566 507.468 107.055 507.563 107.546C507.837 108.962 508.112 110.389 508.248 111.831C508.429 113.759 508.351 115.661 507.682 117.489L507.679 117.496L507.677 117.504C505.649 123.648 501.31 126.949 496.42 127.638C493.8 128.008 491 127.63 488.29 126.516C490.83 127.3 493.38 127.546 495.771 127.183C500.574 126.453 504.651 123.271 506.623 117.241C507.328 115.336 507.379 113.445 507.209 111.581C507.124 110.648 506.983 109.715 506.839 108.789C506.825 108.7 506.811 108.612 506.797 108.523C506.666 107.685 506.536 106.854 506.44 106.016C506.358 105.064 506.678 103.876 507.415 103.203L507.431 103.189L507.445 103.174C508.016 102.558 508.78 102.249 509.662 102.092C510.381 101.964 511.13 101.942 511.88 101.92C512.063 101.915 512.247 101.909 512.431 101.902Z" fill="#1D1D1B" stroke="#303030"/>
<path d="M533.713 105.702C530.42 103.286 528.819 99.6266 528.405 95.79C529.174 99.4169 530.94 102.772 534.321 104.985L534.321 104.985L534.326 104.988C535.655 105.836 537.26 106.4 538.824 106.95C538.892 106.974 538.96 106.998 539.027 107.022C540.68 107.604 542.286 108.187 543.633 109.082L543.635 109.083C546.613 111.038 548.753 114.153 549.313 117.476C550.267 123.841 551.914 129.884 554.635 135.764L554.639 135.771L554.642 135.778C554.73 135.955 554.82 136.139 554.912 136.327C555.411 137.35 555.974 138.504 556.738 139.379C557.2 139.909 557.753 140.36 558.436 140.633C559.12 140.907 559.903 140.989 560.803 140.828C564.01 140.397 566.818 138.479 569.089 136.466C571.155 134.677 572.273 132.509 573.428 130.27C573.494 130.141 573.561 130.012 573.628 129.883C574.609 128.704 575.825 128.285 577.186 128.359C578.592 128.435 580.16 129.039 581.747 129.935C582.241 130.214 582.732 130.518 583.215 130.839C582.751 130.592 582.285 130.358 581.822 130.145C580.131 129.365 578.403 128.813 576.958 128.926C576.222 128.983 575.537 129.214 574.978 129.694C574.426 130.167 574.036 130.846 573.815 131.73C571.749 136.862 566.917 141.359 561.043 142.481C558.752 142.877 557.124 142.268 555.854 141.154C554.555 140.013 553.606 138.319 552.761 136.502L552.761 136.502L552.757 136.495C549.92 130.633 548.213 124.174 547.417 117.832L547.416 117.828C546.999 114.702 545.244 112.116 542.695 110.239L542.695 110.239L542.691 110.236C541.312 109.243 539.786 108.628 538.301 108.029C538.253 108.01 538.205 107.991 538.157 107.971C536.611 107.348 535.104 106.726 533.714 105.702L533.713 105.702Z" fill="#1D1D1B" stroke="#303030"/>
<path d="M542.294 87.8031L542.285 87.7963L542.276 87.7899C540.859 86.8125 539.955 85.0428 539.39 83.4516C538.275 80.1935 535.488 77.9797 532.378 76.616L532.378 76.616L532.374 76.6143C530.454 75.7928 528.957 75.5007 527.82 75.6812C526.632 75.8696 525.886 76.5658 525.509 77.5442C525.247 78.2266 525.166 79.0363 525.203 79.8962C525.062 79.2455 525.019 78.6666 525.057 78.1586C525.165 76.7448 525.904 75.8414 527.042 75.3882C528.214 74.9211 529.852 74.9212 531.706 75.4716C533.549 76.0189 535.561 77.0986 537.452 78.7247C538.768 79.9096 539.801 81.5538 540.306 83.162C540.811 84.774 541.364 86.2105 542.742 87.4348C543.968 88.5416 545.472 89.2478 547.074 89.7045C545.339 89.4525 543.692 88.8633 542.294 87.8031Z" fill="#1D1D1B" stroke="#303030"/>
<path d="M565.665 102.835L565.665 102.835C568.128 105.602 571.837 106.743 575.461 106.318C574.597 106.518 573.702 106.618 572.804 106.616C569.853 106.61 566.912 105.512 564.916 103.371C563.025 101.297 562.614 99.3842 562.706 97.611C562.753 96.7085 562.931 95.8333 563.13 94.9676C563.166 94.8115 563.203 94.6549 563.239 94.4981C563.403 93.8003 563.568 93.1 563.656 92.4308C563.765 91.6028 563.765 90.7702 563.489 89.9665C563.211 89.1539 562.666 88.4167 561.765 87.7546C560.721 86.9881 559.179 86.3093 556.959 85.7105C557.583 85.7908 558.199 85.8992 558.796 86.0431C561.245 86.6337 563.291 87.8002 564.322 89.9938C564.842 91.1998 564.719 92.5278 564.432 93.9446C564.361 94.2956 564.282 94.6459 564.201 94.9991L564.201 95.0018C564.121 95.3538 564.04 95.7093 563.97 96.0599C563.83 96.7539 563.725 97.4575 563.746 98.1349C563.716 99.8739 564.482 101.505 565.665 102.835Z" fill="#1D1D1B" stroke="#303030"/>
<path d="M549.402 100.469C548.263 99.9119 547.069 99.4237 545.847 98.9922C550.384 100.206 554.535 102.295 557.341 105.896L557.346 105.903L557.352 105.91C558.764 107.594 559.453 109.753 560.07 112.008C560.14 112.264 560.209 112.522 560.278 112.78C560.808 114.755 561.35 116.774 562.376 118.395C563.578 120.298 565.644 121.436 567.878 121.965C570.113 122.494 572.573 122.429 574.656 121.873C575.888 121.567 576.845 120.887 577.688 120.121C578.097 119.75 578.487 119.351 578.868 118.963L578.9 118.93C579.287 118.534 579.666 118.148 580.064 117.789C581.326 116.899 582.458 116.829 583.493 117.222C584.504 117.606 585.472 118.452 586.371 119.568C586.347 119.543 586.323 119.518 586.299 119.493L586.299 119.493C585.775 118.953 585.174 118.41 584.527 117.995C583.883 117.582 583.16 117.276 582.399 117.258L582.391 117.258L582.384 117.258C581.476 117.264 580.812 117.685 580.281 118.192C580.019 118.442 579.78 118.721 579.559 118.988C579.517 119.038 579.476 119.087 579.436 119.136C579.255 119.354 579.085 119.56 578.905 119.755L578.891 119.77L578.878 119.786C577.386 121.686 575.098 122.738 572.591 123.063C570.083 123.388 567.398 122.979 565.178 122.002L565.178 122.002L565.167 121.998C562.771 121.013 561.444 119.21 560.553 117.075C560.105 116.002 559.77 114.853 559.466 113.688C559.365 113.302 559.267 112.91 559.169 112.52C558.975 111.747 558.782 110.976 558.569 110.248L558.569 110.248L558.568 110.243C557.153 105.574 553.624 102.534 549.402 100.469Z" fill="#1D1D1B" stroke="#303030"/>
<path d="M585.597 150.943C586.784 152.306 587.866 153.833 588.79 155.279C587.739 154.122 586.678 152.981 585.585 151.887L585.576 151.878L585.565 151.868C585.335 151.661 585.081 151.424 584.809 151.169C584.069 150.475 583.195 149.657 582.287 148.996C581.053 148.099 579.592 147.366 578.122 147.693C577.781 147.768 577.488 147.982 577.245 148.204C576.996 148.433 576.747 148.722 576.502 149.016C576.433 149.098 576.365 149.181 576.296 149.264C575.856 149.797 575.402 150.346 574.877 150.786L574.87 150.792L574.863 150.799C572.512 152.923 569.279 153.834 566.011 153.928C569.826 153.261 573.4 151.766 575.664 148.486C576.21 147.785 576.832 147.102 577.652 146.831C578.972 146.487 580.321 146.785 581.672 147.545C583.033 148.31 584.362 149.526 585.597 150.943Z" fill="#1D1D1B" stroke="#303030"/>
<path d="M584.931 169.636C584.564 170.609 583.968 171.493 583.221 172.211C583.856 171.221 584.249 170.2 584.421 169.187C584.74 167.305 584.288 165.489 583.264 164.015C581.704 161.769 578.85 160.353 575.421 160.614C577.625 159.954 579.999 160.343 581.894 161.45C584.657 163.064 586.308 166.14 584.933 169.629L584.933 169.629L584.931 169.636Z" fill="#1D1D1B" stroke="#303030"/>
<path d="M358.31 330.884C362.123 343.579 365.978 364.004 360.435 387.553C356.497 404.288 349.474 415.552 347.661 418.375C340.962 428.822 330.532 445.596 311.486 451.184C301.89 453.997 297.055 451.953 295.378 454.766C291.033 462.058 319.384 483.125 350.86 507.863C352.704 509.313 419.169 561.339 500.897 608.283C505.388 610.863 515.901 616.762 521.111 613.257C533.197 605.119 494.479 561.504 510.473 527.752C520.715 506.14 542.137 512.302 568.997 481.022C573.634 475.629 602.412 442.11 590.284 425.346C582.469 414.55 555.723 431.596 538.146 419.378C527.081 411.687 525.018 396.802 524.861 386.093" stroke="#303030" stroke-width="2" stroke-miterlimit="10"/>
<path d="M600.094 424.734C600.049 424.723 600.005 424.712 599.96 424.701C609.497 426.664 618.728 429.774 626.929 434.768C630.14 436.743 633.17 439.064 635.893 441.624C635.761 441.685 635.63 441.747 635.499 441.809C635.307 441.892 635.157 442.047 635.094 442.251C635.033 442.446 635.066 442.636 635.134 442.781C635.261 443.056 635.614 443.336 636.055 443.19C636.423 443.076 636.792 442.965 637.161 442.856C637.429 443.126 637.695 443.398 637.957 443.672C641.078 446.95 644.439 450.08 648.808 451.905C655.721 455.061 662.315 453.433 669.129 451.441C676.213 449.499 683.774 448.691 691.128 449.548L691.128 449.548L691.141 449.55C696.353 450.02 701.362 451.437 706.24 453.219C708.989 455.053 711.632 457.05 713.551 459.45L714.382 458.901C714.386 458.908 714.386 458.911 714.386 458.909C714.385 458.908 714.384 458.904 714.383 458.898C714.381 458.891 714.38 458.885 714.38 458.879C714.379 458.872 714.379 458.867 714.379 458.865V458.83L714.374 458.796C714.336 458.526 714.447 458.179 714.699 457.855C714.951 457.532 715.278 457.318 715.546 457.261L715.558 457.258L715.571 457.255C715.723 457.214 715.83 457.2 715.901 457.195C715.955 457.191 715.983 457.192 716.02 457.193C716.032 457.193 716.044 457.193 716.059 457.194C716.077 457.196 716.091 457.198 716.101 457.199C716.124 457.206 716.152 457.212 716.182 457.216C716.191 457.218 716.206 457.22 716.225 457.221C716.236 457.221 716.28 457.224 716.335 457.214C716.36 457.21 716.426 457.198 716.5 457.156C716.577 457.112 716.728 456.994 716.75 456.771C716.77 456.577 716.673 456.445 716.64 456.405C716.599 456.355 716.558 456.325 716.541 456.312C716.503 456.286 716.469 456.27 716.459 456.265C716.444 456.258 716.431 456.254 716.423 456.251C716.416 456.248 716.409 456.246 716.404 456.244C716.395 456.241 716.388 456.239 716.383 456.238C716.382 456.237 716.381 456.237 716.38 456.237C713.22 454.896 709.997 453.53 706.697 452.321C705.734 451.68 704.769 451.065 703.828 450.467L703.634 450.343L703.63 450.341C684.32 438.287 661.443 435.349 639.305 441.217C663.331 431.331 691.713 435.38 712.066 451.097C712.24 451.241 712.413 451.383 712.586 451.524C714.721 453.278 716.728 454.926 718.123 457.304L718.285 457.66L718.289 457.67L718.356 457.826C718.382 457.917 718.404 458.004 718.419 458.086L718.422 458.106L718.428 458.126C718.819 459.613 717.544 461.058 715.919 460.927L715.912 460.926C715.142 460.876 714.61 460.663 713.985 460.412C713.96 460.402 713.934 460.391 713.907 460.381C712.739 459.857 711.601 459.313 710.468 458.771C708.406 457.785 706.36 456.806 704.182 455.975C695.561 452.561 686.068 451.094 676.743 452.372C674.329 452.668 672.006 453.177 669.697 453.72C669.241 453.827 668.786 453.936 668.331 454.044C666.474 454.487 664.618 454.93 662.701 455.287L662.701 455.287L662.69 455.289C655.305 456.841 647.272 454.346 641.783 449.57L641.783 449.57L641.775 449.564C639.969 448.054 638.406 446.378 636.827 444.679L636.766 444.614C635.214 442.945 633.644 441.255 631.839 439.734C622.982 432.079 611.593 427.586 600.096 424.734L600.094 424.734ZM709.969 454.651C711.534 455.279 713.086 455.929 714.63 456.581C714.354 456.757 714.107 456.988 713.91 457.241C713.761 457.432 713.628 457.652 713.532 457.888C712.471 456.722 711.256 455.651 709.969 454.651Z" fill="#1D1D1B" stroke="#303030"/>
<path d="M574.009 475.201L573.998 475.192L573.838 475.051L573.828 475.042L573.633 474.871C573.628 474.877 573.624 474.882 573.619 474.888C573.616 474.893 573.612 474.898 573.609 474.904C573.609 474.904 573.608 474.904 573.608 474.904C573.539 475.014 573.559 475.169 573.664 475.257C573.667 475.26 573.671 475.262 573.674 475.265C573.678 475.268 573.682 475.27 573.687 475.273C573.732 475.3 573.782 475.309 573.828 475.304C573.871 475.299 573.922 475.28 573.967 475.239C573.973 475.232 573.979 475.225 573.985 475.218C573.988 475.213 573.992 475.209 573.995 475.205C573.996 475.203 573.997 475.202 573.998 475.201H574.009ZM574.009 475.201C574.09 475.108 574.085 474.98 574.009 474.896V475.201ZM573.643 475.632C555.739 497.22 541.917 522.797 540.031 550.338L540.438 550.367L540.031 550.341C540.03 550.342 540.03 550.342 540.03 550.343L540.03 550.348C539.584 556.098 539.832 561.854 540.081 567.645L540.098 568.034C540.116 568.472 540.135 568.91 540.153 569.349M540.153 569.349C540.135 568.946 540.115 568.543 540.096 568.14L540.073 567.664C539.798 561.912 539.521 556.127 539.939 550.34C539.939 550.339 539.939 550.338 539.939 550.337C539.939 550.336 539.939 550.334 539.939 550.333C541.708 522.638 555.462 496.978 573.257 475.315C555.315 496.948 541.426 522.624 539.532 550.309C539.083 556.089 539.332 561.872 539.581 567.654C539.841 573.703 540.101 579.751 539.563 585.794M540.153 569.349C540.411 574.863 540.606 580.349 540.138 585.83L540.137 585.837C538.727 606.068 532.403 625.839 522.443 643.835C521.942 644.486 521.438 645.135 520.932 645.782M540.153 569.349C540.382 574.825 540.551 580.33 540.061 585.835M539.563 585.794C537.908 607.946 530.354 629.512 518.578 648.756C519.369 647.769 520.153 646.778 520.932 645.782M539.563 585.794L540.061 585.831C540.061 585.833 540.061 585.834 540.061 585.835M539.563 585.794L540.061 585.839C540.061 585.837 540.061 585.836 540.061 585.835M520.932 645.782C531.64 627.31 538.491 606.839 540.061 585.835M686.695 578.105C689.987 618.609 689.52 659.427 686.37 699.983C685.777 695.884 685.141 691.501 684.469 686.878C688.863 629.754 686.924 572.195 678.248 515.479C676.278 502.493 673.964 489.553 671.308 476.675C673.049 484.37 674.652 492.091 676.095 499.835L676.095 499.838C681.072 525.725 684.602 551.866 686.695 578.104L686.695 578.105Z" fill="#1D1D1B" stroke="#303030"/>
<path d="M336.502 524.944C325.785 510.883 314.446 497.252 303.06 483.66C319.342 502.874 335.518 522.149 350.014 542.574C351.172 544.245 352.406 546.034 353.694 547.901C360.564 557.861 368.976 570.056 375.726 578.473C378.872 582.459 382.175 586.344 385.478 590.229C386.971 591.985 388.464 593.741 389.943 595.507C390.637 596.365 391.334 597.223 392.032 598.084C407.643 617.323 423.869 637.32 428.608 661.388C429.317 665.039 429.959 668.571 429.756 672.265C429.664 673.226 429.564 674.125 429.09 675.092C428.394 676.158 427.438 676.76 426.264 677.001C425.063 677.247 423.614 677.117 421.973 676.665C418.687 675.761 414.78 673.613 410.861 670.983C403.035 665.732 395.316 658.672 392.691 656.234C389.913 653.623 387.201 650.955 384.561 648.228C383.467 646.261 382.372 644.293 381.278 642.326C385.301 646.777 389.515 651.075 393.882 655.21L393.887 655.215C397.143 658.213 402.923 663.487 408.975 667.936C412 670.16 415.107 672.188 418.01 673.622C420.898 675.05 423.648 675.923 425.943 675.761C426.546 675.725 427.032 675.463 427.4 675.043C427.756 674.635 427.987 674.096 428.138 673.505C428.44 672.327 428.459 670.793 428.356 669.244C428.198 666.867 427.737 664.313 427.454 662.746C427.368 662.271 427.299 661.887 427.259 661.626L427.258 661.618L427.257 661.611C423.994 643.742 413.794 627.941 402.89 613.36C397.416 605.877 391.472 598.724 385.533 591.576C382.018 587.347 378.506 583.119 375.092 578.826C368.544 570.49 362.226 561.26 355.895 552.011L355.824 551.907C349.473 542.629 343.109 533.336 336.502 524.944ZM378.197 638.843C379.399 641.005 380.602 643.167 381.805 645.33C378.435 641.724 375.191 638.017 372.089 634.206L366.419 623.895C370.086 629.04 374.028 634.027 378.197 638.843ZM374.605 638.781C377.544 642.217 380.596 645.565 383.751 648.829C386.361 653.52 388.973 658.21 391.585 662.9C389.248 660.981 386.938 659.034 384.656 657.058L374.605 638.781ZM325.077 589.789C340.793 615.086 360.919 637.814 383.866 657.697L388.219 665.613C359.602 641.979 334.482 614.42 316.426 582.886C303.338 558.113 293.203 532.185 283.07 506.262C282.23 504.113 281.39 501.964 280.549 499.816C278.174 493.586 275.786 487.362 273.305 481.206L273.305 481.206L273.302 481.198C272.934 480.325 272.567 479.448 272.199 478.567C268.802 470.435 265.311 462.077 259.608 455.197L259.602 455.189L259.595 455.181C257.815 453.207 255.421 451.044 252.503 451.044H252.495L252.487 451.044C249.847 451.129 247.339 453.045 246.374 455.429C245.262 457.971 245.168 461.207 245.462 464.296L245.462 464.296L245.463 464.309C246.947 476.542 252.288 488.468 257.369 499.812C257.607 500.342 257.843 500.871 258.079 501.398L258.081 501.402C261.176 508.184 264.57 514.874 267.966 521.569L268.031 521.697C271.449 528.435 274.869 535.18 277.999 542.049C278.075 542.23 278.151 542.412 278.228 542.594C279.009 544.447 279.805 546.335 280.138 548.344C280.147 548.464 280.159 548.566 280.17 548.661C280.189 548.834 280.207 548.987 280.205 549.199C280.203 549.498 280.156 549.879 279.973 550.422L279.972 550.425C279.801 550.944 279.335 551.38 278.717 551.653C278.099 551.926 277.415 551.997 276.914 551.869L276.901 551.866L276.889 551.863C274.59 551.399 272.767 550.161 270.963 548.936C270.747 548.789 270.531 548.642 270.314 548.497C264.514 544.294 259.616 539.381 255.08 534.162C243.883 521.082 235.542 505.631 232.29 489.104L232.29 489.103C231.649 485.852 231.268 482.552 230.939 479.238C230.858 478.418 230.779 477.598 230.701 476.777C230.463 474.284 230.225 471.788 229.899 469.323L229.898 469.315L229.897 469.308C229.884 469.229 229.871 469.15 229.858 469.071C229.502 466.906 229.125 464.61 228.319 462.565C227.476 460.428 226.152 458.53 223.869 457.296L223.858 457.29L223.846 457.284C219.378 455.156 213.852 456.244 209.595 458.095L209.588 458.098L209.582 458.101C203.945 460.749 200.812 464.191 199.867 468.295C198.928 472.375 200.185 476.973 203.015 481.874C205.486 486.267 208.34 490.448 211.231 494.595C211.613 495.142 211.995 495.689 212.377 496.235C214.894 499.836 217.406 503.429 219.705 507.152L219.706 507.154C231.128 525.422 238.97 546.145 242.505 567.066C238.071 546.297 230.8 525.736 218.566 507.721C216.003 503.824 213.275 500.015 210.539 496.196C209.334 494.514 208.128 492.83 206.934 491.135C206.617 490.668 206.299 490.202 205.98 489.736C202.385 484.472 198.819 479.25 197.711 473.011L197.71 473.007C196.871 468.457 198.617 464.347 201.729 461.102C204.846 457.852 209.308 455.505 213.796 454.525C219.987 453.233 224.307 454.285 227.246 456.864C230.207 459.463 231.868 463.698 232.533 468.984L232.534 468.988C232.81 471.055 233.053 473.127 233.296 475.2C234.199 482.914 235.102 490.632 237.755 498.095C240.713 507.059 246.056 517.173 252.829 526.257C259.226 534.838 266.921 542.529 275.12 547.463C275.279 547.959 275.411 548.454 275.507 548.953L275.511 548.975L275.518 548.997C275.53 549.038 275.53 549.089 275.529 549.163V549.178C275.529 549.184 275.529 549.195 275.53 549.208C275.53 549.213 275.53 549.218 275.531 549.224C275.531 549.234 275.532 549.252 275.536 549.275L275.536 549.275C275.538 549.289 275.546 549.347 275.577 549.413C275.592 549.447 275.738 549.744 276.091 549.703C276.225 549.687 276.315 549.622 276.355 549.588C276.399 549.551 276.427 549.515 276.44 549.496C276.483 549.437 276.505 549.377 276.506 549.373L276.506 549.373C276.523 549.328 276.547 549.245 276.571 549.168L276.573 549.161L276.574 549.158C276.574 549.157 276.574 549.156 276.575 549.155C276.579 549.148 276.587 549.135 276.604 549.113L276.617 549.096L276.629 549.078C276.683 548.992 276.786 548.886 276.921 548.792C277.056 548.697 277.182 548.643 277.258 548.627L277.272 548.624L277.286 548.621C277.347 548.604 277.392 548.596 277.422 548.592C277.436 548.59 277.447 548.589 277.454 548.588C277.464 548.59 277.481 548.592 277.502 548.593C277.512 548.593 277.541 548.595 277.579 548.591C277.596 548.589 277.635 548.584 277.681 548.569C277.71 548.56 277.838 548.518 277.933 548.385C277.989 548.308 278.027 548.208 278.027 548.096C278.028 547.991 277.996 547.908 277.966 547.854C277.913 547.758 277.843 547.705 277.824 547.691C277.773 547.654 277.728 547.635 277.719 547.632C277.689 547.619 277.664 547.612 277.656 547.61C277.65 547.608 277.643 547.607 277.636 547.605L277.613 547.598L277.573 547.593C277.573 547.593 277.572 547.593 277.57 547.593C277.565 547.592 277.552 547.589 277.53 547.583C277.494 547.574 277.446 547.561 277.389 547.543C277.283 547.51 277.155 547.466 277.029 547.415C276.669 547.213 276.309 547.007 275.951 546.794C275.619 545.828 275.208 544.872 274.8 543.923C274.714 543.721 274.627 543.519 274.541 543.318L274.537 543.309L274.534 543.301C271.254 536.328 267.701 529.432 264.147 522.533C262.696 519.715 261.243 516.896 259.81 514.072C254.863 504.327 250.128 494.5 246.335 484.325C244.015 477.976 241.918 471.542 241.185 464.628C240.771 460.059 240.967 455.134 243.92 451.353C246.771 447.989 250.218 446.784 253.581 447.157C256.966 447.533 260.326 449.517 262.934 452.643L262.935 452.644C269.071 459.948 272.692 468.547 276.289 477.085C276.669 477.988 277.049 478.891 277.432 479.791C280.239 486.875 282.958 493.986 285.678 501.097C290.105 512.675 294.532 524.251 299.335 535.705L299.336 535.707C300.548 538.551 301.746 541.405 302.944 544.261C309.462 559.791 316.007 575.387 325.077 589.789ZM390.268 667.294L392.938 665.328C394.306 667.784 395.675 670.239 397.044 672.695C394.766 670.918 392.507 669.118 390.268 667.294ZM386.029 659.556C388.051 661.279 390.095 662.981 392.158 664.66L389.794 666.402L386.029 659.556ZM346.911 590.495L368.331 629.446C366.627 627.221 364.972 624.962 363.367 622.667C357.899 614.811 352.364 603.397 347.481 593.328C345.848 589.96 344.287 586.741 342.827 583.858C341.397 580.983 339.956 578.11 338.505 575.239C341.305 580.325 344.107 585.411 346.911 590.495ZM335.774 568.206C325.373 549.312 314.97 530.414 304.452 511.585C304.591 511.605 304.729 511.607 304.864 511.593C305.184 511.559 305.457 511.432 305.683 511.258C306.024 510.996 306.262 510.624 306.427 510.263C319.758 534.23 332.669 558.569 344.712 583.104L344.714 583.107C346.077 585.84 347.548 588.912 349.097 592.148C349.398 592.777 349.702 593.412 350.009 594.052L347.787 590.012L347.787 590.011C343.779 582.746 339.777 575.476 335.774 568.206ZM345.609 582.661C341.411 574.11 337.109 565.583 332.72 557.088C343.6 576.592 354.447 596.111 365.294 615.63C368.755 621.858 372.216 628.085 375.678 634.312C372.186 630.076 368.875 625.715 365.775 621.238C360.392 613.422 354.856 601.86 350.031 591.781C348.473 588.528 346.989 585.429 345.609 582.661ZM304.865 508.285C305.248 508.553 305.493 508.731 305.646 508.847C305.647 508.848 305.647 508.85 305.648 508.851L305.645 508.86L305.746 509.041C305.751 509.051 305.757 509.06 305.762 509.07C305.731 509.232 305.681 509.424 305.61 509.62C305.475 509.991 305.29 510.299 305.074 510.466C304.973 510.543 304.87 510.587 304.757 510.599C304.651 510.61 304.508 510.596 304.32 510.518C303.938 510.258 303.701 510.095 303.559 509.996C303.547 509.985 303.535 509.976 303.527 509.97L303.498 509.915L303.421 509.772C303.446 509.589 303.49 509.371 303.561 509.15C303.687 508.755 303.867 508.442 304.076 508.283C304.171 508.211 304.27 508.172 304.383 508.166C304.495 508.159 304.652 508.183 304.865 508.285Z" fill="#1D1D1B" stroke="#303030"/>
</svg>
